<svg fill="none" height="100%" width="100%" viewBox="0 0 200 200" xmlns:xlink="http://www.w3.org/1999/xlink" xmlns="http://www.w3.org/2000/svg"><defs><linearGradient id="i0" gradientUnits="userSpaceOnUse" spreadMethod="pad" x2="100" y2="0" x1="0" y1="0"><stop offset="0%" stop-color="#4332e1" /><stop offset="17.2%" stop-color="#6a1eeb" /><stop offset="100%" stop-color="#9009f4" /></linearGradient><linearGradient id="i1" gradientUnits="userSpaceOnUse" spreadMethod="pad" x2="100" y2="0" x1="0" y1="0"><stop offset="0%" stop-color="#4332e1" /><stop offset="17.2%" stop-color="#6a1eeb" /><stop offset="100%" stop-color="#9009f4" /></linearGradient><filter id="i2"><feColorMatrix values="0 0 0 0 1 0 0 0 0 1 0 0 0 0 1 0 0 0 1 0" type="matrix" /></filter><mask height="20000" width="20000" y="-10000" x="-10000" maskContentUnits="userSpaceOnUse" maskUnits="userSpaceOnUse" style="mask-type: alpha" mask-type="alpha" id="i3"><g filter="url(#i2)"><g transform="translate(100,110)"><animateTransform repeatCount="indefinite" type="translate" attributeName="transform" dur="5s" begin="0s" calcMode="spline" values="100 110; 100 86; 100 110" keyTimes="0; 0.496; 1" keySplines="0.333 0 0.667 1; 0.333 0 0.667 1" fill="freeze" /><g transform="rotate(0)"><animateTransform repeatCount="indefinite" type="rotate" attributeName="transform" dur="5s" begin="0s" calcMode="spline" values="0; 0; 0" keyTimes="0; 0.496; 1" keySplines="0.333 0 0.667 1; 0.333 0 0.667 1" fill="freeze" /><g transform="scale(1,1) translate(0,3)"><g id="i4"><g transform="translate(0,-6)"><animateTransform repeatCount="indefinite" type="translate" attributeName="transform" dur="5s" begin="0s" calcMode="spline" values="0 -6; -3 7; 0 -6" keyTimes="0; 0.496; 1" keySplines="0.333 0 0.667 1; 0.333 0 0.667 1" fill="freeze" /><g transform="rotate(-119.372) scale(1,1) translate(0,0)"><g transform="matrix(1,0,0,1,-66.081,-34.382)" id="i5"><g id="i6" transform="matrix(1,0,0,1,63.276,25.283)"><path fill="#ff00ff" d="M-60.636,25.033C-47.188,16.865,-25.767,7.263,-0.988,-1.204C24.208,-9.815,47.375,-15.371,63.026,-17.043C63.026,-17.043,60.682,-25.033,60.682,-25.033C44.001,-23.052,20.637,-17.273,-3.643,-8.976C-25.271,-1.585,-45.152,6.913,-59.622,14.952C-60.761,15.585,-61.899,16.23,-63.026,16.886C-63.026,16.886,-60.636,25.033,-60.636,25.033Z" /></g></g></g></g></g></g></g></g></g></mask><filter id="i7"><feColorMatrix values="0 0 0 0 1 0 0 0 0 1 0 0 0 0 1 0 0 0 1 0" type="matrix" /></filter><mask height="20000" width="20000" y="-10000" x="-10000" maskContentUnits="userSpaceOnUse" maskUnits="userSpaceOnUse" style="mask-type: alpha" mask-type="alpha" id="i8"><g filter="url(#i7)"><g transform="translate(100,110)"><animateTransform repeatCount="indefinite" type="translate" attributeName="transform" dur="5s" begin="0s" calcMode="spline" values="100 110; 100 86; 100 110" keyTimes="0; 0.496; 1" keySplines="0.333 0 0.667 1; 0.333 0 0.667 1" fill="freeze" /><g transform="rotate(0)"><animateTransform repeatCount="indefinite" type="rotate" attributeName="transform" dur="5s" begin="0s" calcMode="spline" values="0; 0; 0" keyTimes="0; 0.496; 1" keySplines="0.333 0 0.667 1; 0.333 0 0.667 1" fill="freeze" /><g transform="scale(1,1) translate(0,3)"><g transform="matrix(1,0,0,1,0,0)" id="i9"><g transform="matrix(1,0,0,1,-50.433,-51.041)" id="i10"><g id="i6" transform="matrix(1,0,0,1,50.383,51.041)"><path fill="#a3c2fc" d="M43.83,-24.148C43.83,-24.148,43.84,-24.128,43.84,-24.128C45.045,-21.938,46.101,-19.613,46.988,-17.195C48.409,-13.296,49.33,-9.364,49.758,-5.428C49.758,-5.428,49.768,-5.411,49.768,-5.411C50.082,-2.472,50.134,0.44,49.924,3.327C49.924,3.327,49.934,3.344,49.934,3.344C49.548,9.219,48.121,14.914,45.758,20.217C44.392,23.332,42.708,26.279,40.726,29.046C40.726,29.046,40.67,29.079,40.67,29.079C35.036,37.008,27.067,43.332,17.25,46.936C8.145,50.264,-1.296,50.79,-10.117,48.942C-15.76,47.783,-21.142,45.636,-26.042,42.626C-32.274,38.831,-37.701,33.648,-41.824,27.311C-43.845,24.194,-45.559,20.831,-46.88,17.197C-48.311,13.28,-49.234,9.3,-49.665,5.317C-50.133,0.957,-50.021,-3.381,-49.354,-7.611C-48.95,-10.284,-48.316,-12.939,-47.49,-15.477C-46.219,-19.378,-44.475,-23.099,-42.303,-26.542C-40.511,-29.425,-38.42,-32.129,-36.048,-34.597C-30.937,-39.936,-24.541,-44.215,-17.143,-46.932C-8,-50.282,1.453,-50.79,10.314,-48.915C10.314,-48.915,10.342,-48.907,10.342,-48.907C17.01,-47.506,23.328,-44.748,28.889,-40.825C33.122,-37.861,36.894,-34.219,40.059,-29.989C40.059,-29.989,40.069,-29.969,40.069,-29.969C41.439,-28.144,42.71,-26.188,43.83,-24.148Z" /></g></g></g></g></g></g></g></mask><filter id="i11"><feColorMatrix values="0 0 0 0 1 0 0 0 0 1 0 0 0 0 1 0 0 0 1 0" type="matrix" /></filter><mask height="20000" width="20000" y="-10000" x="-10000" maskContentUnits="userSpaceOnUse" maskUnits="userSpaceOnUse" style="mask-type: alpha" mask-type="alpha" id="i12"><g filter="url(#i11)"><g transform="translate(100,110)"><animateTransform repeatCount="indefinite" type="translate" attributeName="transform" dur="5s" begin="0s" calcMode="spline" values="100 110; 100 86; 100 110" keyTimes="0; 0.496; 1" keySplines="0.333 0 0.667 1; 0.333 0 0.667 1" fill="freeze" /><g transform="rotate(0)"><animateTransform repeatCount="indefinite" type="rotate" attributeName="transform" dur="5s" begin="0s" calcMode="spline" values="0; 0; 0" keyTimes="0; 0.496; 1" keySplines="0.333 0 0.667 1; 0.333 0 0.667 1" fill="freeze" /><g transform="scale(1,1) translate(0,3)"><g transform="matrix(1,0,0,1,0,0)" id="i9"><g transform="matrix(1,0,0,1,-50.433,-51.041)" id="i13"><g id="i6" transform="matrix(1,0,0,1,50.383,51.041)"><path fill="#a3c2fc" d="M43.83,-24.148C43.83,-24.148,43.84,-24.128,43.84,-24.128C45.045,-21.938,46.101,-19.613,46.988,-17.195C48.409,-13.296,49.33,-9.364,49.758,-5.428C49.758,-5.428,49.768,-5.411,49.768,-5.411C50.082,-2.472,50.134,0.44,49.924,3.327C49.924,3.327,49.934,3.344,49.934,3.344C49.548,9.219,48.121,14.914,45.758,20.217C44.392,23.332,42.708,26.279,40.726,29.046C40.726,29.046,40.67,29.079,40.67,29.079C35.036,37.008,27.067,43.332,17.25,46.936C8.145,50.264,-1.296,50.79,-10.117,48.942C-15.76,47.783,-21.142,45.636,-26.042,42.626C-32.274,38.831,-37.701,33.648,-41.824,27.311C-43.845,24.194,-45.559,20.831,-46.88,17.197C-48.311,13.28,-49.234,9.3,-49.665,5.317C-50.133,0.957,-50.021,-3.381,-49.354,-7.611C-48.95,-10.284,-48.316,-12.939,-47.49,-15.477C-46.219,-19.378,-44.475,-23.099,-42.303,-26.542C-40.511,-29.425,-38.42,-32.129,-36.048,-34.597C-30.937,-39.936,-24.541,-44.215,-17.143,-46.932C-8,-50.282,1.453,-50.79,10.314,-48.915C10.314,-48.915,10.342,-48.907,10.342,-48.907C17.01,-47.506,23.328,-44.748,28.889,-40.825C33.122,-37.861,36.894,-34.219,40.059,-29.989C40.059,-29.989,40.069,-29.969,40.069,-29.969C41.439,-28.144,42.71,-26.188,43.83,-24.148Z" /></g></g></g></g></g></g></g></mask><filter id="i14"><feColorMatrix values="0 0 0 0 1 0 0 0 0 1 0 0 0 0 1 0 0 0 1 0" type="matrix" /></filter><mask height="20000" width="20000" y="-10000" x="-10000" maskContentUnits="userSpaceOnUse" maskUnits="userSpaceOnUse" style="mask-type: alpha" mask-type="alpha" id="i15"><g filter="url(#i14)"><g transform="translate(100,110)"><animateTransform repeatCount="indefinite" type="translate" attributeName="transform" dur="5s" begin="0s" calcMode="spline" values="100 110; 100 86; 100 110" keyTimes="0; 0.496; 1" keySplines="0.333 0 0.667 1; 0.333 0 0.667 1" fill="freeze" /><g transform="rotate(0)"><animateTransform repeatCount="indefinite" type="rotate" attributeName="transform" dur="5s" begin="0s" calcMode="spline" values="0; 0; 0" keyTimes="0; 0.496; 1" keySplines="0.333 0 0.667 1; 0.333 0 0.667 1" fill="freeze" /><g transform="scale(1,1) translate(0,3)"><g transform="matrix(1,0,0,1,0,0)" id="i9"><g transform="matrix(1,0,0,1,-50.433,-51.041)" id="i16"><g id="i6" transform="matrix(1,0,0,1,50.383,51.041)"><path fill="#a3c2fc" d="M43.83,-24.148C43.83,-24.148,43.84,-24.128,43.84,-24.128C45.045,-21.938,46.101,-19.613,46.988,-17.195C48.409,-13.296,49.33,-9.364,49.758,-5.428C49.758,-5.428,49.768,-5.411,49.768,-5.411C50.082,-2.472,50.134,0.44,49.924,3.327C49.924,3.327,49.934,3.344,49.934,3.344C49.548,9.219,48.121,14.914,45.758,20.217C44.392,23.332,42.708,26.279,40.726,29.046C40.726,29.046,40.67,29.079,40.67,29.079C35.036,37.008,27.067,43.332,17.25,46.936C8.145,50.264,-1.296,50.79,-10.117,48.942C-15.76,47.783,-21.142,45.636,-26.042,42.626C-32.274,38.831,-37.701,33.648,-41.824,27.311C-43.845,24.194,-45.559,20.831,-46.88,17.197C-48.311,13.28,-49.234,9.3,-49.665,5.317C-50.133,0.957,-50.021,-3.381,-49.354,-7.611C-48.95,-10.284,-48.316,-12.939,-47.49,-15.477C-46.219,-19.378,-44.475,-23.099,-42.303,-26.542C-40.511,-29.425,-38.42,-32.129,-36.048,-34.597C-30.937,-39.936,-24.541,-44.215,-17.143,-46.932C-8,-50.282,1.453,-50.79,10.314,-48.915C10.314,-48.915,10.342,-48.907,10.342,-48.907C17.01,-47.506,23.328,-44.748,28.889,-40.825C33.122,-37.861,36.894,-34.219,40.059,-29.989C40.059,-29.989,40.069,-29.969,40.069,-29.969C41.439,-28.144,42.71,-26.188,43.83,-24.148Z" /></g></g></g></g></g></g></g></mask><filter id="i17"><feColorMatrix values="0 0 0 0 1 0 0 0 0 1 0 0 0 0 1 0 0 0 1 0" type="matrix" /></filter><mask height="20000" width="20000" y="-10000" x="-10000" maskContentUnits="userSpaceOnUse" maskUnits="userSpaceOnUse" style="mask-type: alpha" mask-type="alpha" id="i18"><g filter="url(#i17)"><g transform="translate(100,110)"><animateTransform repeatCount="indefinite" type="translate" attributeName="transform" dur="5s" begin="0s" calcMode="spline" values="100 110; 100 86; 100 110" keyTimes="0; 0.496; 1" keySplines="0.333 0 0.667 1; 0.333 0 0.667 1" fill="freeze" /><g transform="rotate(0)"><animateTransform repeatCount="indefinite" type="rotate" attributeName="transform" dur="5s" begin="0s" calcMode="spline" values="0; 0; 0" keyTimes="0; 0.496; 1" keySplines="0.333 0 0.667 1; 0.333 0 0.667 1" fill="freeze" /><g transform="scale(1,1) translate(0,3)"><g id="i4"><g transform="translate(0,-6)"><animateTransform repeatCount="indefinite" type="translate" attributeName="transform" dur="5s" begin="0s" calcMode="spline" values="0 -6; -3 7; 0 -6" keyTimes="0; 0.496; 1" keySplines="0.333 0 0.667 1; 0.333 0 0.667 1" fill="freeze" /><g transform="rotate(-119.372) scale(1,1) translate(0,0)"><g transform="matrix(1,0,0,1,-89.668,-35.14)" id="i19"><g id="i6" transform="matrix(1,0,0,1,90.899,39.085)"><path fill="#f7931e" d="M67.816,-38.835C64.573,-38.835,60.815,-38.573,56.646,-38.078C56.646,-38.078,58.99,-30.088,58.99,-30.088C62.277,-30.439,65.241,-30.623,67.814,-30.623C74.281,-30.623,78.326,-29.489,79.143,-27.099C81.832,-19.229,48.509,-0.717,4.714,14.249C-25.774,24.668,-53.304,30.622,-68.123,30.622C-74.591,30.622,-78.636,29.489,-79.453,27.099C-80.621,23.682,-74.992,18.257,-64.672,11.988C-64.672,11.988,-67.062,3.841,-67.062,3.841C-79.533,11.096,-90.649,19.731,-87.224,29.754C-84.121,38.835,-72.08,38.835,-68.123,38.835C-51.908,38.835,-22.98,32.392,7.37,22.019C28.998,14.629,48.878,6.132,63.348,-1.907C77.097,-9.545,90.649,-18.826,86.914,-29.754C83.811,-38.835,71.773,-38.835,67.817,-38.835C67.817,-38.835,67.816,-38.835,67.816,-38.835Z" /></g></g></g></g></g></g></g></g></g></mask></defs><g mask="url(#i3)" id="i20"><g transform="translate(100,110)"><animateTransform repeatCount="indefinite" type="translate" attributeName="transform" dur="5s" begin="0s" calcMode="spline" values="100 110; 100 86; 100 110" keyTimes="0; 0.496; 1" keySplines="0.333 0 0.667 1; 0.333 0 0.667 1" fill="freeze" /><g transform="rotate(0)"><animateTransform repeatCount="indefinite" type="rotate" attributeName="transform" dur="5s" begin="0s" calcMode="spline" values="0; 0; 0" keyTimes="0; 0.496; 1" keySplines="0.333 0 0.667 1; 0.333 0 0.667 1" fill="freeze" /><g transform="scale(1,1) translate(0,3)"><g id="i4"><g transform="translate(0,-6)"><animateTransform repeatCount="indefinite" type="translate" attributeName="transform" dur="5s" begin="0s" calcMode="spline" values="0 -6; -3 7; 0 -6" keyTimes="0; 0.496; 1" keySplines="0.333 0 0.667 1; 0.333 0 0.667 1" fill="freeze" /><g transform="rotate(-119.372) scale(1,1) translate(0,0)"><g id="i21"><g transform="translate(6.923,2.826)"><g transform="rotate(119.372)"><animateTransform repeatCount="indefinite" type="rotate" attributeName="transform" dur="5s" begin="0s" calcMode="spline" values="119.372; 1199.372; 1199.372" keyTimes="0; 0.992; 1" keySplines="0 0 1 1; 0 0 1 1" fill="freeze" /><g transform="scale(1,1.175) translate(0,0)"><g id="i22" transform="matrix(1.078,0,0,1.131,1.029,6.965)"><rect height="167.93" width="183.059" y="-83.965" x="-91.529" stroke-width="2" stroke="#ffffff" fill="url(#i0)" /></g></g></g></g></g></g></g></g></g></g></g></g><g display="none" id="i20"><g transform="translate(100,110)"><animateTransform repeatCount="indefinite" type="translate" attributeName="transform" dur="5s" begin="0s" calcMode="spline" values="100 110; 100 86; 100 110" keyTimes="0; 0.496; 1" keySplines="0.333 0 0.667 1; 0.333 0 0.667 1" fill="freeze" /><g transform="rotate(0)"><animateTransform repeatCount="indefinite" type="rotate" attributeName="transform" dur="5s" begin="0s" calcMode="spline" values="0; 0; 0" keyTimes="0; 0.496; 1" keySplines="0.333 0 0.667 1; 0.333 0 0.667 1" fill="freeze" /><g transform="scale(1,1) translate(0,3)"><g id="i4"><g transform="translate(0,-6)"><animateTransform repeatCount="indefinite" type="translate" attributeName="transform" dur="5s" begin="0s" calcMode="spline" values="0 -6; -3 7; 0 -6" keyTimes="0; 0.496; 1" keySplines="0.333 0 0.667 1; 0.333 0 0.667 1" fill="freeze" /><g transform="rotate(-119.372) scale(1,1) translate(0,0)"><g transform="matrix(1,0,0,1,-66.081,-34.382)" id="i5"><g id="i6" transform="matrix(1,0,0,1,63.276,25.283)"><path fill="#ff00ff" d="M-60.636,25.033C-47.188,16.865,-25.767,7.263,-0.988,-1.204C24.208,-9.815,47.375,-15.371,63.026,-17.043C63.026,-17.043,60.682,-25.033,60.682,-25.033C44.001,-23.052,20.637,-17.273,-3.643,-8.976C-25.271,-1.585,-45.152,6.913,-59.622,14.952C-60.761,15.585,-61.899,16.23,-63.026,16.886C-63.026,16.886,-60.636,25.033,-60.636,25.033Z" /></g></g></g></g></g></g></g></g></g><g id="i20"><g transform="translate(100,110)"><animateTransform repeatCount="indefinite" type="translate" attributeName="transform" dur="5s" begin="0s" calcMode="spline" values="100 110; 100 86; 100 110" keyTimes="0; 0.496; 1" keySplines="0.333 0 0.667 1; 0.333 0 0.667 1" fill="freeze" /><g transform="rotate(0)"><animateTransform repeatCount="indefinite" type="rotate" attributeName="transform" dur="5s" begin="0s" calcMode="spline" values="0; 0; 0" keyTimes="0; 0.496; 1" keySplines="0.333 0 0.667 1; 0.333 0 0.667 1" fill="freeze" /><g transform="scale(1,1) translate(0,3)"><g transform="matrix(1,0,0,1,0,0)" id="i9"><g transform="matrix(1,0,0,1,-50.433,-51.041)" id="i23"><g id="i6" transform="matrix(1,0,0,1,50.383,51.041)"><path fill="#a3c2fc" d="M43.83,-24.148C43.83,-24.148,43.84,-24.128,43.84,-24.128C45.045,-21.938,46.101,-19.613,46.988,-17.195C48.409,-13.296,49.33,-9.364,49.758,-5.428C49.758,-5.428,49.768,-5.411,49.768,-5.411C50.082,-2.472,50.134,0.44,49.924,3.327C49.924,3.327,49.934,3.344,49.934,3.344C49.548,9.219,48.121,14.914,45.758,20.217C44.392,23.332,42.708,26.279,40.726,29.046C40.726,29.046,40.67,29.079,40.67,29.079C35.036,37.008,27.067,43.332,17.25,46.936C8.145,50.264,-1.296,50.79,-10.117,48.942C-15.76,47.783,-21.142,45.636,-26.042,42.626C-32.274,38.831,-37.701,33.648,-41.824,27.311C-43.845,24.194,-45.559,20.831,-46.88,17.197C-48.311,13.28,-49.234,9.3,-49.665,5.317C-50.133,0.957,-50.021,-3.381,-49.354,-7.611C-48.95,-10.284,-48.316,-12.939,-47.49,-15.477C-46.219,-19.378,-44.475,-23.099,-42.303,-26.542C-40.511,-29.425,-38.42,-32.129,-36.048,-34.597C-30.937,-39.936,-24.541,-44.215,-17.143,-46.932C-8,-50.282,1.453,-50.79,10.314,-48.915C10.314,-48.915,10.342,-48.907,10.342,-48.907C17.01,-47.506,23.328,-44.748,28.889,-40.825C33.122,-37.861,36.894,-34.219,40.059,-29.989C40.059,-29.989,40.069,-29.969,40.069,-29.969C41.439,-28.144,42.71,-26.188,43.83,-24.148Z" /></g></g></g></g></g></g></g><g mask="url(#i8)" id="i20"><g transform="translate(100,110)"><animateTransform repeatCount="indefinite" type="translate" attributeName="transform" dur="5s" begin="0s" calcMode="spline" values="100 110; 100 86; 100 110" keyTimes="0; 0.496; 1" keySplines="0.333 0 0.667 1; 0.333 0 0.667 1" fill="freeze" /><g transform="rotate(0)"><animateTransform repeatCount="indefinite" type="rotate" attributeName="transform" dur="5s" begin="0s" calcMode="spline" values="0; 0; 0" keyTimes="0; 0.496; 1" keySplines="0.333 0 0.667 1; 0.333 0 0.667 1" fill="freeze" /><g transform="scale(1,1) translate(0,3)"><g transform="matrix(1,0,0,1,0,0)" id="i9"><g id="i24"><g transform="translate(150,0)"><animateTransform repeatCount="indefinite" type="translate" attributeName="transform" dur="5s" begin="0s" calcMode="spline" values="150 0; 400 0" keyTimes="0; 1" keySplines="0 0 1 1" fill="freeze" /><g transform="scale(1,1) translate(-125.25,-50.25)"><g id="i25" transform="matrix(1,0,0,1,125.251,50.25)"><path fill="#edf6ff" fill-rule="evenodd" d="M112.347,45.567C99.487,49.555,76.402,47.399,69.223,43.606C65.32,42.08,66.774,38.018,71.926,36.194C75.785,34.649,82.122,32.994,91.571,29.233C104.042,24.274,115.02,24.594,125,24.404C125,24.404,125,12.673,125,12.673C121.931,13.632,118.78,14.565,115.584,15.455C86.108,23.676,27.857,40.97,28.256,31.185C28.441,26.656,44.39,24.24,50.317,18.51C56.244,12.779,102.729,6.864,114.178,3.245C117.836,2.089,121.476,0.587,125,-1.022C125,-1.022,125,-10.944,125,-10.944C120.146,-7.992,115.082,-5.503,110.021,-3.891C91.045,2.15,89.801,3.431,83.107,3.789C75.961,4.172,71.539,3.565,72.697,1.091C75.186,-4.225,89.88,-10.635,97.325,-13.689C104.769,-16.743,96.443,-15.584,108.773,-23.737C113.754,-27.021,119.414,-30.673,125,-34.264C125,-34.264,125,-40.072,125,-40.072C116.572,-34.601,108.128,-29.784,102.881,-27.162C90.7,-21.047,65.481,-20.698,56.516,-24.153C51.834,-25.42,51.912,-30.232,56.709,-32.941C60.24,-35.174,66.355,-37.832,75.005,-43.274C80.414,-46.674,85.894,-48.678,91.281,-50C91.281,-50,75.356,-50,75.356,-50C75.241,-49.944,75.131,-49.887,75.012,-49.832C49.905,-37.488,-28.116,-27.367,-26.774,-37.264C-25.914,-43.879,11.61,-46.605,30.811,-50C30.811,-50,-18.601,-50,-18.601,-50C-33.924,-42.696,-58.917,-37.566,-73.54,-35.025C-92.576,-32.51,-85.452,-44.338,-63.058,-49.295C-63.058,-49.295,-62.954,-49.342,-62.954,-49.342C-62.311,-49.559,-61.662,-49.779,-61.009,-50C-61.009,-50,-90.497,-50,-90.497,-50C-89.234,-47.151,-89.634,-42.745,-93.049,-38.626C-98.241,-32.359,-110.708,-19.637,-125,-10.944C-125,-10.944,-125,-1.022,-125,-1.022C-121.531,-2.607,-118.174,-4.296,-115.027,-5.865C-108.683,-9.026,-84.334,-23.32,-74.334,-27.061C-58.166,-33.11,-42.476,-36.375,-43.529,-29.74C-43.984,-26.873,-55.028,-24.281,-66.905,-18.053C-79.13,-11.641,-80.489,-6.996,-96.122,0.932C-100.599,3.624,-106.92,6.395,-114.237,9.056C-117.638,10.293,-121.255,11.505,-125,12.676C-125,12.676,-125,24.404,-125,24.404C-123.215,24.369,-121.457,24.321,-119.732,24.221C-117.546,24.095,-115.433,23.659,-113.309,23.535C-106.218,23.122,-103.292,26.424,-97.164,27.65C-87.816,29.519,-76.029,32.915,-84.285,37.537C-91.749,41.716,-105.062,33.507,-120.665,39.546C-122.145,40.119,-123.591,40.666,-125,41.191C-125,41.191,-125,50,-125,50C-125,50,-119.399,50,-119.399,50C-114.794,48.389,-107.682,46.988,-98.815,46.483C-98.815,46.483,-98.691,46.457,-98.691,46.457C-67.409,42.157,-25.886,37.571,-35.975,45.2C-38.457,47.087,-42.428,48.669,-47.342,50C-47.342,50,-29.421,50,-29.421,50C-29.024,49.82,-28.629,49.637,-28.239,49.44C-16.168,43.326,2.905,38.614,14.206,36.182C29.356,33.566,24.094,43.321,6.346,48.01C6.346,48.01,6.264,48.051,6.264,48.051C4.603,48.694,2.896,49.347,1.166,50C1.166,50,27.975,50,27.975,50C46.412,43.862,63.998,39.32,59.752,46.048C58.897,47.411,57.531,48.729,55.793,50C55.793,50,125,50,125,50C125,50,125,41.191,125,41.191C120.024,43.043,115.578,44.571,112.347,45.567ZM-60.889,-10.381C-56.384,-11.956,-52.195,-18,-41.165,-21.83C-20.697,-28.926,-6.249,-22.901,8.948,-24.504C20.454,-25.716,33.945,-33.714,41.105,-33.512C41.105,-33.512,41.116,-33.491,41.116,-33.491C44.062,-33.453,47.189,-30.494,45.044,-27.093C45.044,-27.093,45.055,-27.072,45.055,-27.072C38.489,-17.567,-4.004,-2.369,-20.11,1.702C-35.128,5.526,-56.318,3.349,-68.021,1.702C-79.725,0.057,-75.702,-7.624,-60.889,-10.381ZM-14.258,29.133C-36.762,34.451,-45.711,34.619,-79.359,25.841C-113.007,17.064,-93.361,5.465,-85.545,6.209C-77.728,6.954,-31.234,18.327,-16.115,10.616C4.943,-0.126,49.741,-17.042,68.378,-14.734C77.944,-13.29,75.073,-8.22,69.598,-5.14C64.124,-2.061,60.993,-3.896,53.204,0.545C46.798,4.198,9.419,23.539,-14.258,29.133Z" /></g><g id="i6" transform="matrix(1,0,0,1,12.341,8.118)"><path fill="#edf6ff" d="M1.989,-7.868C-2.276,-4.539,-7.177,-1.128,-12.091,2.062C-12.091,2.062,-12.091,7.868,-12.091,7.868C-2.56,1.74,6.744,-4.212,12.09,-7.868C12.09,-7.868,1.989,-7.868,1.989,-7.868Z" /></g></g></g></g></g></g></g></g></g><g display="none" id="i20"><g transform="translate(100,110)"><animateTransform repeatCount="indefinite" type="translate" attributeName="transform" dur="5s" begin="0s" calcMode="spline" values="100 110; 100 86; 100 110" keyTimes="0; 0.496; 1" keySplines="0.333 0 0.667 1; 0.333 0 0.667 1" fill="freeze" /><g transform="rotate(0)"><animateTransform repeatCount="indefinite" type="rotate" attributeName="transform" dur="5s" begin="0s" calcMode="spline" values="0; 0; 0" keyTimes="0; 0.496; 1" keySplines="0.333 0 0.667 1; 0.333 0 0.667 1" fill="freeze" /><g transform="scale(1,1) translate(0,3)"><g transform="matrix(1,0,0,1,0,0)" id="i9"><g transform="matrix(1,0,0,1,-50.433,-51.041)" id="i10"><g id="i6" transform="matrix(1,0,0,1,50.383,51.041)"><path fill="#a3c2fc" d="M43.83,-24.148C43.83,-24.148,43.84,-24.128,43.84,-24.128C45.045,-21.938,46.101,-19.613,46.988,-17.195C48.409,-13.296,49.33,-9.364,49.758,-5.428C49.758,-5.428,49.768,-5.411,49.768,-5.411C50.082,-2.472,50.134,0.44,49.924,3.327C49.924,3.327,49.934,3.344,49.934,3.344C49.548,9.219,48.121,14.914,45.758,20.217C44.392,23.332,42.708,26.279,40.726,29.046C40.726,29.046,40.67,29.079,40.67,29.079C35.036,37.008,27.067,43.332,17.25,46.936C8.145,50.264,-1.296,50.79,-10.117,48.942C-15.76,47.783,-21.142,45.636,-26.042,42.626C-32.274,38.831,-37.701,33.648,-41.824,27.311C-43.845,24.194,-45.559,20.831,-46.88,17.197C-48.311,13.28,-49.234,9.3,-49.665,5.317C-50.133,0.957,-50.021,-3.381,-49.354,-7.611C-48.95,-10.284,-48.316,-12.939,-47.49,-15.477C-46.219,-19.378,-44.475,-23.099,-42.303,-26.542C-40.511,-29.425,-38.42,-32.129,-36.048,-34.597C-30.937,-39.936,-24.541,-44.215,-17.143,-46.932C-8,-50.282,1.453,-50.79,10.314,-48.915C10.314,-48.915,10.342,-48.907,10.342,-48.907C17.01,-47.506,23.328,-44.748,28.889,-40.825C33.122,-37.861,36.894,-34.219,40.059,-29.989C40.059,-29.989,40.069,-29.969,40.069,-29.969C41.439,-28.144,42.71,-26.188,43.83,-24.148Z" /></g></g></g></g></g></g></g><g mask="url(#i12)" id="i20"><g transform="translate(100,110)"><animateTransform repeatCount="indefinite" type="translate" attributeName="transform" dur="5s" begin="0s" calcMode="spline" values="100 110; 100 86; 100 110" keyTimes="0; 0.496; 1" keySplines="0.333 0 0.667 1; 0.333 0 0.667 1" fill="freeze" /><g transform="rotate(0)"><animateTransform repeatCount="indefinite" type="rotate" attributeName="transform" dur="5s" begin="0s" calcMode="spline" values="0; 0; 0" keyTimes="0; 0.496; 1" keySplines="0.333 0 0.667 1; 0.333 0 0.667 1" fill="freeze" /><g transform="scale(1,1) translate(0,3)"><g transform="matrix(1,0,0,1,0,0)" id="i9"><g id="i26"><g transform="translate(-100,0)"><animateTransform repeatCount="indefinite" type="translate" attributeName="transform" dur="5s" begin="0s" calcMode="spline" values="-100 0; 150 0" keyTimes="0; 1" keySplines="0 0 1 1" fill="freeze" /><g transform="scale(1,1) translate(-125.25,-50.25)"><g id="i25" transform="matrix(1,0,0,1,125.251,50.25)"><path fill="#edf6ff" fill-rule="evenodd" d="M112.347,45.567C99.487,49.555,76.402,47.399,69.223,43.606C65.32,42.08,66.774,38.018,71.926,36.194C75.785,34.649,82.122,32.994,91.571,29.233C104.042,24.274,115.02,24.594,125,24.404C125,24.404,125,12.673,125,12.673C121.931,13.632,118.78,14.565,115.584,15.455C86.108,23.676,27.857,40.97,28.256,31.185C28.441,26.656,44.39,24.24,50.317,18.51C56.244,12.779,102.729,6.864,114.178,3.245C117.836,2.089,121.476,0.587,125,-1.022C125,-1.022,125,-10.944,125,-10.944C120.146,-7.992,115.082,-5.503,110.021,-3.891C91.045,2.15,89.801,3.431,83.107,3.789C75.961,4.172,71.539,3.565,72.697,1.091C75.186,-4.225,89.88,-10.635,97.325,-13.689C104.769,-16.743,96.443,-15.584,108.773,-23.737C113.754,-27.021,119.414,-30.673,125,-34.264C125,-34.264,125,-40.072,125,-40.072C116.572,-34.601,108.128,-29.784,102.881,-27.162C90.7,-21.047,65.481,-20.698,56.516,-24.153C51.834,-25.42,51.912,-30.232,56.709,-32.941C60.24,-35.174,66.355,-37.832,75.005,-43.274C80.414,-46.674,85.894,-48.678,91.281,-50C91.281,-50,75.356,-50,75.356,-50C75.241,-49.944,75.131,-49.887,75.012,-49.832C49.905,-37.488,-28.116,-27.367,-26.774,-37.264C-25.914,-43.879,11.61,-46.605,30.811,-50C30.811,-50,-18.601,-50,-18.601,-50C-33.924,-42.696,-58.917,-37.566,-73.54,-35.025C-92.576,-32.51,-85.452,-44.338,-63.058,-49.295C-63.058,-49.295,-62.954,-49.342,-62.954,-49.342C-62.311,-49.559,-61.662,-49.779,-61.009,-50C-61.009,-50,-90.497,-50,-90.497,-50C-89.234,-47.151,-89.634,-42.745,-93.049,-38.626C-98.241,-32.359,-110.708,-19.637,-125,-10.944C-125,-10.944,-125,-1.022,-125,-1.022C-121.531,-2.607,-118.174,-4.296,-115.027,-5.865C-108.683,-9.026,-84.334,-23.32,-74.334,-27.061C-58.166,-33.11,-42.476,-36.375,-43.529,-29.74C-43.984,-26.873,-55.028,-24.281,-66.905,-18.053C-79.13,-11.641,-80.489,-6.996,-96.122,0.932C-100.599,3.624,-106.92,6.395,-114.237,9.056C-117.638,10.293,-121.255,11.505,-125,12.676C-125,12.676,-125,24.404,-125,24.404C-123.215,24.369,-121.457,24.321,-119.732,24.221C-117.546,24.095,-115.433,23.659,-113.309,23.535C-106.218,23.122,-103.292,26.424,-97.164,27.65C-87.816,29.519,-76.029,32.915,-84.285,37.537C-91.749,41.716,-105.062,33.507,-120.665,39.546C-122.145,40.119,-123.591,40.666,-125,41.191C-125,41.191,-125,50,-125,50C-125,50,-119.399,50,-119.399,50C-114.794,48.389,-107.682,46.988,-98.815,46.483C-98.815,46.483,-98.691,46.457,-98.691,46.457C-67.409,42.157,-25.886,37.571,-35.975,45.2C-38.457,47.087,-42.428,48.669,-47.342,50C-47.342,50,-29.421,50,-29.421,50C-29.024,49.82,-28.629,49.637,-28.239,49.44C-16.168,43.326,2.905,38.614,14.206,36.182C29.356,33.566,24.094,43.321,6.346,48.01C6.346,48.01,6.264,48.051,6.264,48.051C4.603,48.694,2.896,49.347,1.166,50C1.166,50,27.975,50,27.975,50C46.412,43.862,63.998,39.32,59.752,46.048C58.897,47.411,57.531,48.729,55.793,50C55.793,50,125,50,125,50C125,50,125,41.191,125,41.191C120.024,43.043,115.578,44.571,112.347,45.567ZM-60.889,-10.381C-56.384,-11.956,-52.195,-18,-41.165,-21.83C-20.697,-28.926,-6.249,-22.901,8.948,-24.504C20.454,-25.716,33.945,-33.714,41.105,-33.512C41.105,-33.512,41.116,-33.491,41.116,-33.491C44.062,-33.453,47.189,-30.494,45.044,-27.093C45.044,-27.093,45.055,-27.072,45.055,-27.072C38.489,-17.567,-4.004,-2.369,-20.11,1.702C-35.128,5.526,-56.318,3.349,-68.021,1.702C-79.725,0.057,-75.702,-7.624,-60.889,-10.381ZM-14.258,29.133C-36.762,34.451,-45.711,34.619,-79.359,25.841C-113.007,17.064,-93.361,5.465,-85.545,6.209C-77.728,6.954,-31.234,18.327,-16.115,10.616C4.943,-0.126,49.741,-17.042,68.378,-14.734C77.944,-13.29,75.073,-8.22,69.598,-5.14C64.124,-2.061,60.993,-3.896,53.204,0.545C46.798,4.198,9.419,23.539,-14.258,29.133Z" /></g><g id="i6" transform="matrix(1,0,0,1,12.341,8.118)"><path fill="#edf6ff" d="M1.989,-7.868C-2.276,-4.539,-7.177,-1.128,-12.091,2.062C-12.091,2.062,-12.091,7.868,-12.091,7.868C-2.56,1.74,6.744,-4.212,12.09,-7.868C12.09,-7.868,1.989,-7.868,1.989,-7.868Z" /></g></g></g></g></g></g></g></g></g><g display="none" id="i20"><g transform="translate(100,110)"><animateTransform repeatCount="indefinite" type="translate" attributeName="transform" dur="5s" begin="0s" calcMode="spline" values="100 110; 100 86; 100 110" keyTimes="0; 0.496; 1" keySplines="0.333 0 0.667 1; 0.333 0 0.667 1" fill="freeze" /><g transform="rotate(0)"><animateTransform repeatCount="indefinite" type="rotate" attributeName="transform" dur="5s" begin="0s" calcMode="spline" values="0; 0; 0" keyTimes="0; 0.496; 1" keySplines="0.333 0 0.667 1; 0.333 0 0.667 1" fill="freeze" /><g transform="scale(1,1) translate(0,3)"><g transform="matrix(1,0,0,1,0,0)" id="i9"><g transform="matrix(1,0,0,1,-50.433,-51.041)" id="i13"><g id="i6" transform="matrix(1,0,0,1,50.383,51.041)"><path fill="#a3c2fc" d="M43.83,-24.148C43.83,-24.148,43.84,-24.128,43.84,-24.128C45.045,-21.938,46.101,-19.613,46.988,-17.195C48.409,-13.296,49.33,-9.364,49.758,-5.428C49.758,-5.428,49.768,-5.411,49.768,-5.411C50.082,-2.472,50.134,0.44,49.924,3.327C49.924,3.327,49.934,3.344,49.934,3.344C49.548,9.219,48.121,14.914,45.758,20.217C44.392,23.332,42.708,26.279,40.726,29.046C40.726,29.046,40.67,29.079,40.67,29.079C35.036,37.008,27.067,43.332,17.25,46.936C8.145,50.264,-1.296,50.79,-10.117,48.942C-15.76,47.783,-21.142,45.636,-26.042,42.626C-32.274,38.831,-37.701,33.648,-41.824,27.311C-43.845,24.194,-45.559,20.831,-46.88,17.197C-48.311,13.28,-49.234,9.3,-49.665,5.317C-50.133,0.957,-50.021,-3.381,-49.354,-7.611C-48.95,-10.284,-48.316,-12.939,-47.49,-15.477C-46.219,-19.378,-44.475,-23.099,-42.303,-26.542C-40.511,-29.425,-38.42,-32.129,-36.048,-34.597C-30.937,-39.936,-24.541,-44.215,-17.143,-46.932C-8,-50.282,1.453,-50.79,10.314,-48.915C10.314,-48.915,10.342,-48.907,10.342,-48.907C17.01,-47.506,23.328,-44.748,28.889,-40.825C33.122,-37.861,36.894,-34.219,40.059,-29.989C40.059,-29.989,40.069,-29.969,40.069,-29.969C41.439,-28.144,42.71,-26.188,43.83,-24.148Z" /></g></g></g></g></g></g></g><g mask="url(#i15)" id="i20"><g transform="translate(100,110)"><animateTransform repeatCount="indefinite" type="translate" attributeName="transform" dur="5s" begin="0s" calcMode="spline" values="100 110; 100 86; 100 110" keyTimes="0; 0.496; 1" keySplines="0.333 0 0.667 1; 0.333 0 0.667 1" fill="freeze" /><g transform="rotate(0)"><animateTransform repeatCount="indefinite" type="rotate" attributeName="transform" dur="5s" begin="0s" calcMode="spline" values="0; 0; 0" keyTimes="0; 0.496; 1" keySplines="0.333 0 0.667 1; 0.333 0 0.667 1" fill="freeze" /><g transform="scale(1,1) translate(0,3)"><g transform="matrix(1,0,0,1,0,0)" id="i9"><g id="i27"><g transform="translate(-350,0)"><animateTransform repeatCount="indefinite" type="translate" attributeName="transform" dur="5s" begin="0s" calcMode="spline" values="-350 0; -100 0" keyTimes="0; 1" keySplines="0 0 1 1" fill="freeze" /><g transform="scale(1,1) translate(-125.25,-50.25)"><g id="i25" transform="matrix(1,0,0,1,125.251,50.25)"><path fill="#edf6ff" fill-rule="evenodd" d="M112.347,45.567C99.487,49.555,76.402,47.399,69.223,43.606C65.32,42.08,66.774,38.018,71.926,36.194C75.785,34.649,82.122,32.994,91.571,29.233C104.042,24.274,115.02,24.594,125,24.404C125,24.404,125,12.673,125,12.673C121.931,13.632,118.78,14.565,115.584,15.455C86.108,23.676,27.857,40.97,28.256,31.185C28.441,26.656,44.39,24.24,50.317,18.51C56.244,12.779,102.729,6.864,114.178,3.245C117.836,2.089,121.476,0.587,125,-1.022C125,-1.022,125,-10.944,125,-10.944C120.146,-7.992,115.082,-5.503,110.021,-3.891C91.045,2.15,89.801,3.431,83.107,3.789C75.961,4.172,71.539,3.565,72.697,1.091C75.186,-4.225,89.88,-10.635,97.325,-13.689C104.769,-16.743,96.443,-15.584,108.773,-23.737C113.754,-27.021,119.414,-30.673,125,-34.264C125,-34.264,125,-40.072,125,-40.072C116.572,-34.601,108.128,-29.784,102.881,-27.162C90.7,-21.047,65.481,-20.698,56.516,-24.153C51.834,-25.42,51.912,-30.232,56.709,-32.941C60.24,-35.174,66.355,-37.832,75.005,-43.274C80.414,-46.674,85.894,-48.678,91.281,-50C91.281,-50,75.356,-50,75.356,-50C75.241,-49.944,75.131,-49.887,75.012,-49.832C49.905,-37.488,-28.116,-27.367,-26.774,-37.264C-25.914,-43.879,11.61,-46.605,30.811,-50C30.811,-50,-18.601,-50,-18.601,-50C-33.924,-42.696,-58.917,-37.566,-73.54,-35.025C-92.576,-32.51,-85.452,-44.338,-63.058,-49.295C-63.058,-49.295,-62.954,-49.342,-62.954,-49.342C-62.311,-49.559,-61.662,-49.779,-61.009,-50C-61.009,-50,-90.497,-50,-90.497,-50C-89.234,-47.151,-89.634,-42.745,-93.049,-38.626C-98.241,-32.359,-110.708,-19.637,-125,-10.944C-125,-10.944,-125,-1.022,-125,-1.022C-121.531,-2.607,-118.174,-4.296,-115.027,-5.865C-108.683,-9.026,-84.334,-23.32,-74.334,-27.061C-58.166,-33.11,-42.476,-36.375,-43.529,-29.74C-43.984,-26.873,-55.028,-24.281,-66.905,-18.053C-79.13,-11.641,-80.489,-6.996,-96.122,0.932C-100.599,3.624,-106.92,6.395,-114.237,9.056C-117.638,10.293,-121.255,11.505,-125,12.676C-125,12.676,-125,24.404,-125,24.404C-123.215,24.369,-121.457,24.321,-119.732,24.221C-117.546,24.095,-115.433,23.659,-113.309,23.535C-106.218,23.122,-103.292,26.424,-97.164,27.65C-87.816,29.519,-76.029,32.915,-84.285,37.537C-91.749,41.716,-105.062,33.507,-120.665,39.546C-122.145,40.119,-123.591,40.666,-125,41.191C-125,41.191,-125,50,-125,50C-125,50,-119.399,50,-119.399,50C-114.794,48.389,-107.682,46.988,-98.815,46.483C-98.815,46.483,-98.691,46.457,-98.691,46.457C-67.409,42.157,-25.886,37.571,-35.975,45.2C-38.457,47.087,-42.428,48.669,-47.342,50C-47.342,50,-29.421,50,-29.421,50C-29.024,49.82,-28.629,49.637,-28.239,49.44C-16.168,43.326,2.905,38.614,14.206,36.182C29.356,33.566,24.094,43.321,6.346,48.01C6.346,48.01,6.264,48.051,6.264,48.051C4.603,48.694,2.896,49.347,1.166,50C1.166,50,27.975,50,27.975,50C46.412,43.862,63.998,39.32,59.752,46.048C58.897,47.411,57.531,48.729,55.793,50C55.793,50,125,50,125,50C125,50,125,41.191,125,41.191C120.024,43.043,115.578,44.571,112.347,45.567ZM-60.889,-10.381C-56.384,-11.956,-52.195,-18,-41.165,-21.83C-20.697,-28.926,-6.249,-22.901,8.948,-24.504C20.454,-25.716,33.945,-33.714,41.105,-33.512C41.105,-33.512,41.116,-33.491,41.116,-33.491C44.062,-33.453,47.189,-30.494,45.044,-27.093C45.044,-27.093,45.055,-27.072,45.055,-27.072C38.489,-17.567,-4.004,-2.369,-20.11,1.702C-35.128,5.526,-56.318,3.349,-68.021,1.702C-79.725,0.057,-75.702,-7.624,-60.889,-10.381ZM-14.258,29.133C-36.762,34.451,-45.711,34.619,-79.359,25.841C-113.007,17.064,-93.361,5.465,-85.545,6.209C-77.728,6.954,-31.234,18.327,-16.115,10.616C4.943,-0.126,49.741,-17.042,68.378,-14.734C77.944,-13.29,75.073,-8.22,69.598,-5.14C64.124,-2.061,60.993,-3.896,53.204,0.545C46.798,4.198,9.419,23.539,-14.258,29.133Z" /></g><g id="i6" transform="matrix(1,0,0,1,12.341,8.118)"><path fill="#edf6ff" d="M1.989,-7.868C-2.276,-4.539,-7.177,-1.128,-12.091,2.062C-12.091,2.062,-12.091,7.868,-12.091,7.868C-2.56,1.74,6.744,-4.212,12.09,-7.868C12.09,-7.868,1.989,-7.868,1.989,-7.868Z" /></g></g></g></g></g></g></g></g></g><g display="none" id="i20"><g transform="translate(100,110)"><animateTransform repeatCount="indefinite" type="translate" attributeName="transform" dur="5s" begin="0s" calcMode="spline" values="100 110; 100 86; 100 110" keyTimes="0; 0.496; 1" keySplines="0.333 0 0.667 1; 0.333 0 0.667 1" fill="freeze" /><g transform="rotate(0)"><animateTransform repeatCount="indefinite" type="rotate" attributeName="transform" dur="5s" begin="0s" calcMode="spline" values="0; 0; 0" keyTimes="0; 0.496; 1" keySplines="0.333 0 0.667 1; 0.333 0 0.667 1" fill="freeze" /><g transform="scale(1,1) translate(0,3)"><g transform="matrix(1,0,0,1,0,0)" id="i9"><g transform="matrix(1,0,0,1,-50.433,-51.041)" id="i16"><g id="i6" transform="matrix(1,0,0,1,50.383,51.041)"><path fill="#a3c2fc" d="M43.83,-24.148C43.83,-24.148,43.84,-24.128,43.84,-24.128C45.045,-21.938,46.101,-19.613,46.988,-17.195C48.409,-13.296,49.33,-9.364,49.758,-5.428C49.758,-5.428,49.768,-5.411,49.768,-5.411C50.082,-2.472,50.134,0.44,49.924,3.327C49.924,3.327,49.934,3.344,49.934,3.344C49.548,9.219,48.121,14.914,45.758,20.217C44.392,23.332,42.708,26.279,40.726,29.046C40.726,29.046,40.67,29.079,40.67,29.079C35.036,37.008,27.067,43.332,17.25,46.936C8.145,50.264,-1.296,50.79,-10.117,48.942C-15.76,47.783,-21.142,45.636,-26.042,42.626C-32.274,38.831,-37.701,33.648,-41.824,27.311C-43.845,24.194,-45.559,20.831,-46.88,17.197C-48.311,13.28,-49.234,9.3,-49.665,5.317C-50.133,0.957,-50.021,-3.381,-49.354,-7.611C-48.95,-10.284,-48.316,-12.939,-47.49,-15.477C-46.219,-19.378,-44.475,-23.099,-42.303,-26.542C-40.511,-29.425,-38.42,-32.129,-36.048,-34.597C-30.937,-39.936,-24.541,-44.215,-17.143,-46.932C-8,-50.282,1.453,-50.79,10.314,-48.915C10.314,-48.915,10.342,-48.907,10.342,-48.907C17.01,-47.506,23.328,-44.748,28.889,-40.825C33.122,-37.861,36.894,-34.219,40.059,-29.989C40.059,-29.989,40.069,-29.969,40.069,-29.969C41.439,-28.144,42.71,-26.188,43.83,-24.148Z" /></g></g></g></g></g></g></g><g mask="url(#i18)" id="i20"><g transform="translate(100,110)"><animateTransform repeatCount="indefinite" type="translate" attributeName="transform" dur="5s" begin="0s" calcMode="spline" values="100 110; 100 86; 100 110" keyTimes="0; 0.496; 1" keySplines="0.333 0 0.667 1; 0.333 0 0.667 1" fill="freeze" /><g transform="rotate(0)"><animateTransform repeatCount="indefinite" type="rotate" attributeName="transform" dur="5s" begin="0s" calcMode="spline" values="0; 0; 0" keyTimes="0; 0.496; 1" keySplines="0.333 0 0.667 1; 0.333 0 0.667 1" fill="freeze" /><g transform="scale(1,1) translate(0,3)"><g id="i4"><g transform="translate(0,-6)"><animateTransform repeatCount="indefinite" type="translate" attributeName="transform" dur="5s" begin="0s" calcMode="spline" values="0 -6; -3 7; 0 -6" keyTimes="0; 0.496; 1" keySplines="0.333 0 0.667 1; 0.333 0 0.667 1" fill="freeze" /><g transform="rotate(-119.372) scale(1,1) translate(0,0)"><g id="i28"><g transform="translate(6.923,2.826)"><g transform="rotate(119.372)"><animateTransform repeatCount="indefinite" type="rotate" attributeName="transform" dur="5s" begin="0s" calcMode="spline" values="119.372; 1199.372; 1199.372" keyTimes="0; 0.992; 1" keySplines="0 0 1 1; 0 0 1 1" fill="freeze" /><g transform="scale(1,1.175) translate(0,0)"><g id="i22" transform="matrix(1.078,0,0,1.131,1.029,6.965)"><rect height="167.93" width="183.059" y="-83.965" x="-91.529" stroke-width="2" stroke="#ffffff" fill="url(#i1)" /></g></g></g></g></g></g></g></g></g></g></g></g><g display="none" id="i20"><g transform="translate(100,110)"><animateTransform repeatCount="indefinite" type="translate" attributeName="transform" dur="5s" begin="0s" calcMode="spline" values="100 110; 100 86; 100 110" keyTimes="0; 0.496; 1" keySplines="0.333 0 0.667 1; 0.333 0 0.667 1" fill="freeze" /><g transform="rotate(0)"><animateTransform repeatCount="indefinite" type="rotate" attributeName="transform" dur="5s" begin="0s" calcMode="spline" values="0; 0; 0" keyTimes="0; 0.496; 1" keySplines="0.333 0 0.667 1; 0.333 0 0.667 1" fill="freeze" /><g transform="scale(1,1) translate(0,3)"><g id="i4"><g transform="translate(0,-6)"><animateTransform repeatCount="indefinite" type="translate" attributeName="transform" dur="5s" begin="0s" calcMode="spline" values="0 -6; -3 7; 0 -6" keyTimes="0; 0.496; 1" keySplines="0.333 0 0.667 1; 0.333 0 0.667 1" fill="freeze" /><g transform="rotate(-119.372) scale(1,1) translate(0,0)"><g transform="matrix(1,0,0,1,-89.668,-35.14)" id="i19"><g id="i6" transform="matrix(1,0,0,1,90.899,39.085)"><path fill="#f7931e" d="M67.816,-38.835C64.573,-38.835,60.815,-38.573,56.646,-38.078C56.646,-38.078,58.99,-30.088,58.99,-30.088C62.277,-30.439,65.241,-30.623,67.814,-30.623C74.281,-30.623,78.326,-29.489,79.143,-27.099C81.832,-19.229,48.509,-0.717,4.714,14.249C-25.774,24.668,-53.304,30.622,-68.123,30.622C-74.591,30.622,-78.636,29.489,-79.453,27.099C-80.621,23.682,-74.992,18.257,-64.672,11.988C-64.672,11.988,-67.062,3.841,-67.062,3.841C-79.533,11.096,-90.649,19.731,-87.224,29.754C-84.121,38.835,-72.08,38.835,-68.123,38.835C-51.908,38.835,-22.98,32.392,7.37,22.019C28.998,14.629,48.878,6.132,63.348,-1.907C77.097,-9.545,90.649,-18.826,86.914,-29.754C83.811,-38.835,71.773,-38.835,67.817,-38.835C67.817,-38.835,67.816,-38.835,67.816,-38.835Z" /></g></g></g></g></g></g></g></g></g><g id="i20"><g transform="translate(100,110)"><animateTransform repeatCount="indefinite" type="translate" attributeName="transform" dur="5s" begin="0s" calcMode="spline" values="100 110; 100 86; 100 110" keyTimes="0; 0.496; 1" keySplines="0.333 0 0.667 1; 0.333 0 0.667 1" fill="freeze" /><g transform="rotate(0)"><animateTransform repeatCount="indefinite" type="rotate" attributeName="transform" dur="5s" begin="0s" calcMode="spline" values="0; 0; 0" keyTimes="0; 0.496; 1" keySplines="0.333 0 0.667 1; 0.333 0 0.667 1" fill="freeze" /><g transform="scale(1,1) translate(0,3)"><g transform="matrix(1,0,0,1,0,0)" opacity="0" id="i9" /></g></g></g></g><g id="i20"><g transform="translate(100,110)"><animateTransform repeatCount="indefinite" type="translate" attributeName="transform" dur="5s" begin="0s" calcMode="spline" values="100 110; 100 86; 100 110" keyTimes="0; 0.496; 1" keySplines="0.333 0 0.667 1; 0.333 0 0.667 1" fill="freeze" /><g transform="rotate(0)"><animateTransform repeatCount="indefinite" type="rotate" attributeName="transform" dur="5s" begin="0s" calcMode="spline" values="0; 0; 0" keyTimes="0; 0.496; 1" keySplines="0.333 0 0.667 1; 0.333 0 0.667 1" fill="freeze" /><g transform="scale(1,1) translate(0,3)"><g opacity="0" id="i4"><g transform="translate(0,-6)"><animateTransform repeatCount="indefinite" type="translate" attributeName="transform" dur="5s" begin="0s" calcMode="spline" values="0 -6; -3 7; 0 -6" keyTimes="0; 0.496; 1" keySplines="0.333 0 0.667 1; 0.333 0 0.667 1" fill="freeze" /><g transform="rotate(-119.372) scale(1,1) translate(0,0)" /></g></g></g></g></g></g><g opacity="0" id="i20"><g transform="translate(100,110)"><animateTransform repeatCount="indefinite" type="translate" attributeName="transform" dur="5s" begin="0s" calcMode="spline" values="100 110; 100 86; 100 110" keyTimes="0; 0.496; 1" keySplines="0.333 0 0.667 1; 0.333 0 0.667 1" fill="freeze" /><g transform="rotate(0)"><animateTransform repeatCount="indefinite" type="rotate" attributeName="transform" dur="5s" begin="0s" calcMode="spline" values="0; 0; 0" keyTimes="0; 0.496; 1" keySplines="0.333 0 0.667 1; 0.333 0 0.667 1" fill="freeze" /><g transform="scale(1,1) translate(0,3)" /></g></g></g></svg>